<svg width="87" height="84" viewBox="0 0 87 84" fill="none" xmlns="http://www.w3.org/2000/svg">
<g filter="url(#filter0_d_10_879)">
<path d="M38.4773 3.62336C40.7194 -0.226069 46.2806 -0.22607 48.5227 3.62336L57.2435 18.5961C58.0648 20.0062 59.4411 21.0061 61.036 21.3515L77.9707 25.0186C82.3246 25.9615 84.0431 31.2504 81.0749 34.5723L69.5299 47.4931C68.4426 48.71 67.9169 50.3279 68.0813 51.9515L69.8267 69.1906C70.2755 73.6227 65.7764 76.8915 61.6999 75.0951L45.8439 68.1079C44.3506 67.4498 42.6494 67.4498 41.1561 68.1079L25.3001 75.0951C21.2236 76.8915 16.7245 73.6227 17.1733 69.1906L18.9187 51.9515C19.0831 50.3279 18.5574 48.71 17.4701 47.4931L5.92509 34.5723C2.95691 31.2504 4.67539 25.9615 9.02926 25.0186L25.964 21.3515C27.5589 21.0061 28.9352 20.0062 29.7565 18.5961L38.4773 3.62336Z" fill="url(#paint0_linear_10_879)"/>
<path d="M48.0204 3.9159L56.7412 18.8886C57.6447 20.4398 59.1585 21.5397 60.9129 21.9196L77.8477 25.5867C81.7662 26.4353 83.3128 31.1953 80.6415 34.185L69.0965 47.1058C67.9004 48.4444 67.3222 50.2241 67.503 52.01L69.2485 69.2492C69.6523 73.2381 65.6032 76.1799 61.9343 74.5632L46.0783 67.576C44.4356 66.8521 42.5644 66.8521 40.9217 67.576L25.0657 74.5632C21.3968 76.1799 17.3477 73.2381 17.7516 69.2492L19.497 52.01C19.6778 50.2241 19.0996 48.4444 17.9035 47.1058L6.35852 34.185C3.68716 31.1953 5.23379 26.4353 9.15227 25.5867L26.0871 21.9196C27.8415 21.5397 29.3553 20.4398 30.2588 18.8886L38.9796 3.9159C40.9975 0.451416 46.0025 0.451416 48.0204 3.9159Z" stroke="#704F3D" stroke-width="1.1625"/>
</g>
<defs>
<filter id="filter0_d_10_879" x="0.4422" y="0.736267" width="86.1156" height="82.861" filterUnits="userSpaceOnUse" color-interpolation-filters="sRGB">
<feFlood flood-opacity="0" result="BackgroundImageFix"/>
<feColorMatrix in="SourceAlpha" type="matrix" values="0 0 0 0 0 0 0 0 0 0 0 0 0 0 0 0 0 0 127 0" result="hardAlpha"/>
<feOffset dy="4"/>
<feGaussianBlur stdDeviation="2"/>
<feComposite in2="hardAlpha" operator="out"/>
<feColorMatrix type="matrix" values="0 0 0 0 0 0 0 0 0 0 0 0 0 0 0 0 0 0 0.25 0"/>
<feBlend mode="normal" in2="BackgroundImageFix" result="effect1_dropShadow_10_879"/>
<feBlend mode="normal" in="SourceGraphic" in2="effect1_dropShadow_10_879" result="shape"/>
</filter>
<linearGradient id="paint0_linear_10_879" x1="43.5" y1="-5" x2="43.5" y2="88" gradientUnits="userSpaceOnUse">
<stop stop-color="#FFF8BD"/>
<stop offset="1" stop-color="#F4CD43"/>
</linearGradient>
</defs>
</svg>
