<svg width="320" height="568" viewBox="0 0 320 568" fill="none" xmlns="http://www.w3.org/2000/svg">
<rect width="320" height="429" fill="url(#paint0_linear_156_2)"/>
<ellipse cx="52.5442" cy="263.702" rx="40.5442" ry="105.702" fill="#FFE999" fill-opacity="0.7"/>
<path fill-rule="evenodd" clip-rule="evenodd" d="M52.5442 207.742C49.5183 207.742 47.0653 210.195 47.0653 213.221V292.16L28.2221 260.451C26.6654 257.831 23.5477 257.338 21.2586 259.35C18.9694 261.361 18.3756 265.115 19.9323 267.734L47.0653 313.392V434.098C47.0653 437.124 49.5183 439.577 52.5442 439.577C55.5702 439.577 58.0232 437.124 58.0232 434.098V334.605L73.2166 320.066C75.539 317.844 76.0057 313.855 74.2591 311.156C72.5125 308.458 69.2139 308.072 66.8914 310.294L58.0232 318.78V273.652L81.5394 245.085C83.5377 242.657 83.5395 238.72 81.5434 236.291C79.5473 233.861 76.3092 233.86 74.3109 236.287L58.0232 256.073V213.221C58.0232 210.195 55.5702 207.742 52.5442 207.742Z" fill="#BC9E51" fill-opacity="0.7"/>
<ellipse cx="285.5" cy="322.5" rx="27.5" ry="52.5" fill="#FF9999" fill-opacity="0.7"/>
<path fill-rule="evenodd" clip-rule="evenodd" d="M282 303.5C282 301.567 283.567 300 285.5 300C287.433 300 289 301.567 289 303.5V350.507L300.039 339.944C301.627 338.424 303.883 338.688 305.078 340.533C306.273 342.379 305.953 345.107 304.365 346.627L289.202 361.137C289.136 361.2 289.068 361.261 289 361.318V428.5C289 430.433 287.433 432 285.5 432C283.567 432 282 430.433 282 428.5V332.879C281.452 332.625 280.955 332.27 280.554 331.822L263.597 312.877C262.163 311.275 262.499 309.086 264.348 307.988C266.197 306.89 268.858 307.299 270.293 308.901L282 321.981V303.5Z" fill="#BC8451" fill-opacity="0.7"/>
<ellipse cx="133" cy="332.491" rx="27" ry="51.5455" fill="#99C2FF" fill-opacity="0.7"/>
<path fill-rule="evenodd" clip-rule="evenodd" d="M129.564 313.836C129.564 311.939 131.102 310.4 133 310.4C134.898 310.4 136.436 311.939 136.436 313.836V359.989L147.275 349.617C148.834 348.125 151.049 348.384 152.222 350.196C153.395 352.008 153.082 354.687 151.522 356.179L136.635 370.425C136.57 370.488 136.503 370.547 136.436 370.603V436.564C136.436 438.461 134.898 440 133 440C131.102 440 129.564 438.461 129.564 436.564V342.681C129.025 342.431 128.538 342.083 128.144 341.643L111.495 323.043C110.087 321.47 110.417 319.321 112.232 318.243C114.048 317.165 116.661 317.566 118.069 319.139L129.564 331.981V313.836Z" fill="#BC8C45" fill-opacity="0.7"/>
<ellipse cx="210" cy="297.727" rx="36" ry="68.7273" fill="#FFBE99" fill-opacity="0.7"/>
<path fill-rule="evenodd" clip-rule="evenodd" d="M205.418 272.855C205.418 270.324 207.47 268.273 210 268.273C212.53 268.273 214.582 270.324 214.582 272.855V334.391L229.033 320.562C231.112 318.573 234.066 318.918 235.629 321.334C237.193 323.75 236.775 327.322 234.696 329.312L214.846 348.307C214.759 348.39 214.671 348.468 214.582 348.543V436.491C214.582 439.021 212.53 441.073 210 441.073C207.47 441.073 205.418 439.021 205.418 436.491V311.314C204.701 310.981 204.05 310.517 203.525 309.931L181.327 285.13C179.449 283.032 179.889 280.167 182.31 278.73C184.73 277.292 188.215 277.828 190.092 279.925L205.418 297.048V272.855Z" fill="#BC7751" fill-opacity="0.7"/>
<path d="M9.87164 386.483L26.8583 428.675L13.2242 430.577L9.87164 386.483Z" fill="#9AEA74"/>
<path d="M24.9958 380.199L33.9835 429.003L20.1343 429.348L24.9958 380.199Z" fill="#9AEA74"/>
<path d="M43.461 386.697L37.7461 431.829L24.2084 429.556L43.461 386.697Z" fill="#9AEA74"/>
<path d="M42.8716 382.483L59.8583 424.675L46.2242 426.577L42.8716 382.483Z" fill="#9AEA74"/>
<path d="M57.9958 376.199L66.9835 425.003L53.1343 425.348L57.9958 376.199Z" fill="#9AEA74"/>
<path d="M76.461 382.697L70.7461 427.829L57.2084 425.556L76.461 382.697Z" fill="#9AEA74"/>
<path d="M76.8716 382.483L93.8583 424.675L80.2242 426.577L76.8716 382.483Z" fill="#9AEA74"/>
<path d="M91.9958 376.199L100.983 425.003L87.1343 425.348L91.9958 376.199Z" fill="#9AEA74"/>
<path d="M110.461 382.697L104.746 427.829L91.2084 425.556L110.461 382.697Z" fill="#9AEA74"/>
<path d="M110.872 385.483L127.858 427.675L114.224 429.577L110.872 385.483Z" fill="#9AEA74"/>
<path d="M125.996 379.199L134.983 428.003L121.134 428.348L125.996 379.199Z" fill="#9AEA74"/>
<path d="M144.461 385.697L138.746 430.829L125.208 428.556L144.461 385.697Z" fill="#9AEA74"/>
<path d="M143.872 381.483L160.858 423.675L147.224 425.577L143.872 381.483Z" fill="#9AEA74"/>
<path d="M158.996 375.199L167.983 424.003L154.134 424.348L158.996 375.199Z" fill="#9AEA74"/>
<path d="M177.461 381.697L171.746 426.829L158.208 424.556L177.461 381.697Z" fill="#9AEA74"/>
<path d="M177.872 381.483L194.858 423.675L181.224 425.577L177.872 381.483Z" fill="#9AEA74"/>
<path d="M192.996 375.199L201.983 424.003L188.134 424.348L192.996 375.199Z" fill="#9AEA74"/>
<path d="M211.461 381.697L205.746 426.829L192.208 424.556L211.461 381.697Z" fill="#9AEA74"/>
<path d="M211.872 386.483L228.858 428.675L215.224 430.577L211.872 386.483Z" fill="#9AEA74"/>
<path d="M226.996 380.199L235.983 429.003L222.134 429.348L226.996 380.199Z" fill="#9AEA74"/>
<path d="M245.461 386.697L239.746 431.829L226.208 429.556L245.461 386.697Z" fill="#9AEA74"/>
<path d="M244.872 382.483L261.858 424.675L248.224 426.577L244.872 382.483Z" fill="#9AEA74"/>
<path d="M259.996 376.199L268.983 425.003L255.134 425.348L259.996 376.199Z" fill="#9AEA74"/>
<path d="M278.461 382.697L272.746 427.829L259.208 425.556L278.461 382.697Z" fill="#9AEA74"/>
<path d="M278.872 382.483L295.858 424.675L282.224 426.577L278.872 382.483Z" fill="#9AEA74"/>
<path d="M293.996 376.199L302.983 425.003L289.134 425.348L293.996 376.199Z" fill="#9AEA74"/>
<path d="M312.461 382.697L306.746 427.829L293.208 425.556L312.461 382.697Z" fill="#9AEA74"/>
<rect y="421" width="40" height="147" fill="#CC6F52"/>
<rect x="40" y="421" width="40" height="147" fill="#D68267"/>
<rect x="80" y="421" width="40" height="147" fill="#CC6F52"/>
<rect x="120" y="421" width="40" height="147" fill="#D68267"/>
<rect x="160" y="421" width="40" height="147" fill="#CC6F52"/>
<rect x="200" y="421" width="40" height="147" fill="#D68267"/>
<rect x="240" y="421" width="40" height="147" fill="#CC6F52"/>
<rect x="280" y="421" width="40" height="147" fill="#D68267"/>
<rect x="41.89" y="59.463" width="81.675" height="29.537" rx="14.7685" fill="white"/>
<ellipse cx="49.0675" cy="68.8843" rx="18.0675" ry="20.1157" fill="white"/>
<ellipse cx="111.932" cy="68.8843" rx="18.0675" ry="20.1157" fill="white"/>
<ellipse cx="81.7375" cy="54.1157" rx="22.5225" ry="20.1157" fill="white"/>
<rect x="215.89" y="36.463" width="81.675" height="29.537" rx="14.7685" fill="white"/>
<ellipse cx="223.068" cy="45.8843" rx="18.0675" ry="20.1157" fill="white"/>
<ellipse cx="285.932" cy="45.8843" rx="18.0675" ry="20.1157" fill="white"/>
<ellipse cx="255.738" cy="31.1157" rx="22.5225" ry="20.1157" fill="white"/>
<rect width="320" height="568" fill="white" fill-opacity="0.7"/>
<defs>
<linearGradient id="paint0_linear_156_2" x1="160" y1="0" x2="160" y2="429" gradientUnits="userSpaceOnUse">
<stop stop-color="#B6EEF5"/>
<stop offset="1" stop-color="#EDFDFF"/>
</linearGradient>
</defs>
</svg>
